# xmcd
#
# Track frame offsets:
#	150
#	13077
#	36571
#	58907
#	80921
#	99286
#	131144
#	144589
#	184209
#	216871
#	239608
#
# Disc length: 3599 seconds
#
# Revision: 0
# Processed by: cddbd v1.5.2PL0 Copyright (c) Steve Scherf et al.
# Submitted via: EasyCDDAExtractor 16.0.6.1
#
DISCID=ab0e0d0b
DTITLE=Ξανθούλα Ντακοβάνου - Η ΚΥΡΑ ΚΑΙ Η ΒΑΡΚΑ
DYEAR=1900
DGENRE=
TTITLE0=Ξανθούλα Ντακοβάνου - ΑΣΠΡΟ ΠΕΡΙΣΤΕΡΙ
TTITLE1=Ξανθούλα Ντακοβάνου - ΜΑΥΡΑ ΧΕΛΙΔΟΝΙΑ
TTITLE2=Ξανθούλα Ντακοβάνου - ΦΕΓΓΑΡΑΚΙ ΜΟΥ 
TTITLE3=Ξανθούλα Ντακοβάνου - ΑΛΜΥΡΑ
TTITLE4=Ξανθούλα Ντακοβάνου - ΠΡΟΣΜΟΝΗ
TTITLE5=Ξανθούλα Ντακοβάνου - ΝΥΧΤΟΠΕΡΠΑΤΗΜΑΤΑ
TTITLE6=ΟΡΧΗΣΤΡΑ - TAKADIMI TARAMA
TTITLE7=Ξανθούλα Ντακοβάνου - Η ΒΑΡΚΑ ΤΗΣ ΛΗΘΗΣ
TTITLE8=Ξανθούλα Ντακοβάνου - ΠΑΝΣΕΛΗΝΟΣ
TTITLE9=Ξανθούλα Ντακοβάνου - DOURME
TTITLE10=Ξανθούλα Ντακοβάνου - ΑΓΑΠΗ
EXTD=
EXTT0=
EXTT1=
EXTT2=
EXTT3=
EXTT4=
EXTT5=
EXTT6=
EXTT7=
EXTT8=
EXTT9=
EXTT10=
PLAYORDER=
